<?xml version="1.0" encoding="UTF-8" standalone="no"?>
<svg
   xmlns:dc="http://purl.org/dc/elements/1.1/"
   xmlns:cc="http://creativecommons.org/ns#"
   xmlns:rdf="http://www.w3.org/1999/02/22-rdf-syntax-ns#"
   xmlns:svg="http://www.w3.org/2000/svg"
   xmlns="http://www.w3.org/2000/svg"
   id="svg8"
   version="1.1"
   viewBox="0 0 84.837494 111.79756"
   height="111.79756mm"
   width="84.837494mm">
  <defs
     id="defs2" />
  <metadata
     id="metadata5">
    <rdf:RDF>
      <cc:Work
         rdf:about="">
        <dc:format>image/svg+xml</dc:format>
        <dc:type
           rdf:resource="http://purl.org/dc/dcmitype/StillImage" />
        <dc:title></dc:title>
      </cc:Work>
    </rdf:RDF>
  </metadata>
  <g
     transform="translate(-61.583346,-34.01595)"
     id="layer1">
    <path
       id="path915"
       d="m 113.34655,145.64324 c -1.0697,-0.12043 -2.03327,-0.27358 -2.14127,-0.34033 -0.10801,-0.0667 -1.4553,-0.29137 -2.99399,-0.49915 -4.24287,-0.57296 -4.61469,-0.6275 -6.32539,-0.92785 -3.162654,-0.55528 -3.717374,-0.64568 -4.497934,-0.73301 -0.43656,-0.0488 -1.23031,-0.16531 -1.76388,-0.25883 -1.70728,-0.29922 -6.50051,-1.0303 -10.40695,-1.58731 -2.0858,-0.2974 -3.91562,-0.57799 -4.06626,-0.62352 -0.15065,-0.0455 -1.06346,-0.15855 -2.02848,-0.25117 -1.78768,-0.17156 -3.28342,-0.64401 -4.20822,-1.32921 -0.83204,-0.61648 -1.50982,-2.42376 -1.62068,-4.32153 -0.0425,-0.72761 -0.19529,-2.00567 -0.33951,-2.84014 -0.14423,-0.83448 -0.38183,-2.38229 -0.52801,-3.43959 -0.14618,-1.05729 -0.45508,-3.19236 -0.68645,-4.74458 -1.06209,-7.12541 -1.70089,-11.3879 -1.87686,-12.52361 -0.24824,-1.60214 -0.77435,-5.13074 -1.13088,-7.58472 -0.15505,-1.06715 -0.44446,-2.93247 -0.64313,-4.14514 -0.19868,-1.21267 -0.70958,-4.586109 -1.13534,-7.496529 -0.42575,-2.91042 -0.93403,-6.32354 -1.1295,-7.58472 -0.69283,-4.4701 -0.90274,-5.83514 -1.08502,-7.05556 -0.10142,-0.67909 -0.25174,-1.67128 -0.33403,-2.20486 -0.36683,-2.378432 -1.10989,-7.499922 -1.67626,-11.553472 -0.33887,-2.42535 -0.73569,-5.00685 -0.88181,-5.73667 -0.40198,-2.00773 -0.34061,-3.93457 0.16244,-5.10057 0.43814,-1.01556 1.68417,-2.66136 2.35223,-3.10693 0.53824,-0.35898 4.02115,-1.25891 6.83285,-1.76552 1.26118,-0.22723 3.04712,-0.5709 3.96875,-0.76371 0.92164,-0.1928 2.19164,-0.43933 2.82223,-0.54784 0.63059,-0.10851 2.01965,-0.38639 3.0868,-0.61751 1.06715,-0.23112 3.36903,-0.70088 5.11528,-1.0439 1.74625,-0.34303 4.1275,-0.82696 5.29167,-1.0754 1.16416,-0.24845 2.9501,-0.60545 3.96875,-0.79335 1.01864,-0.18789 3.20145,-0.62462 4.850704,-0.97052 5.72753,-1.20126 14.1156,-2.93041 14.90486,-3.07256 1.03846,-0.18703 6.89264,-1.36202 8.02569,-1.61083 4.01822,-0.88239 5.43669,-1.16029 12.61181,-2.47086 5.88896,-1.07564 6.59764,-1.12211 7.85207,-0.51485 1.08178,0.52368 2.12396,1.75625 2.45877,2.90797 0.3842,1.32162 0.35298,3.69986 -0.0665,5.06858 -0.18647,0.60838 -0.51628,1.97926 -0.7329,3.04641 -0.21662,1.06716 -0.7863,3.60716 -1.26596,5.64445 -0.47966,2.03729 -1.05805,4.5376 -1.28531,5.55625 -0.22727,1.01864 -0.76995,3.33473 -1.20597,5.14686 -0.43601,1.81212 -0.8754,3.71712 -0.97641,4.23333 -0.20617,1.05362 -0.49348,2.33158 -1.16275,5.17189 -0.25146,1.06715 -0.65371,2.853092 -0.89389,3.968752 -0.24019,1.11566 -0.59169,2.66347 -0.78112,3.43959 -0.18944,0.77611 -0.58841,2.52236 -0.8866,3.88055 -0.48725,2.21922 -0.72076,3.2034 -1.23461,5.20347 -0.0872,0.33955 -0.28526,1.17299 -0.44005,1.85209 -0.45138,1.98032 -0.97166,4.18383 -1.1453,4.85069 -0.0884,0.33955 -0.2789,1.133299 -0.42328,1.763889 -0.14439,0.63059 -0.50449,2.15209 -0.80022,3.38111 -0.29573,1.22902 -0.5377,2.42361 -0.5377,2.65465 0,0.23104 -0.0672,0.49548 -0.14926,0.58764 -0.0821,0.0922 -0.24892,0.76289 -0.37074,1.49049 -0.12182,0.7276 -0.29298,1.52135 -0.38036,1.76389 -0.1898,0.52681 -0.80857,3.16054 -1.11891,4.7625 -0.22494,1.1611 -0.6817,3.20857 -1.00342,4.49792 -0.0968,0.38805 -0.36862,1.4993 -0.60398,2.46944 -0.23536,0.97014 -0.54321,2.16076 -0.6841,2.64583 -0.35062,1.20708 -1.40978,5.61983 -1.86342,7.7635 -0.20502,0.96883 -0.45056,2.01005 -0.54564,2.31383 -0.23505,0.75097 -0.99635,4.24462 -1.3018,5.97406 -0.13707,0.77611 -0.36685,2.06953 -0.51061,2.87426 -0.34866,1.9517 -1.08974,3.48244 -2.254,4.65576 -1.39671,1.40757 -2.2565,1.76188 -4.43972,1.82953 -0.98756,0.0306 -2.67077,-0.0429 -3.74047,-0.16333 z m 6.0686,-2.40623 c 0.69251,-0.47117 0.97473,-0.80337 1.19797,-1.41013 0.16062,-0.43656 0.46701,-1.23031 0.68087,-1.76389 0.21385,-0.53357 0.52457,-1.56545 0.69049,-2.29305 0.38592,-1.69239 1.09749,-4.72327 1.42868,-6.08542 0.14153,-0.58208 0.5385,-2.36802 0.88215,-3.96875 0.62143,-2.89464 0.91439,-4.13895 3.59225,-15.25764 1.36083,-5.65026 2.89391,-12.25362 3.2096,-13.82456 0.16691,-0.83053 1.0527,-4.593419 2.47577,-10.517099 1.20179,-5.00261 3.49395,-15.100832 5.10483,-22.489592 0.28554,-1.30969 0.7491,-3.33375 1.03015,-4.49791 0.28104,-1.16417 0.76515,-3.22792 1.0758,-4.58612 0.31066,-1.35819 0.90849,-3.89819 1.32852,-5.64444 0.42003,-1.74625 0.97369,-4.16719 1.23035,-5.37986 0.25665,-1.21268 0.6281,-2.83687 0.82543,-3.60932 0.32337,-1.26581 0.33815,-1.55195 0.14974,-2.89877 -0.29487,-2.10788 -0.64191,-2.61994 -2.04435,-3.01649 -0.62955,-0.17801 -1.20605,-0.0991 -5.02708,0.68806 -2.37379,0.48903 -5.38754,1.09374 -6.69723,1.34381 -1.30969,0.25006 -3.09562,0.61809 -3.96875,0.81783 -0.87312,0.19974 -2.06375,0.43173 -2.64583,0.51555 -0.58209,0.0838 -1.57427,0.26579 -2.20486,0.40439 -0.63059,0.1386 -1.94028,0.4156 -2.91042,0.61556 -5.41153,1.11538 -13.39436,2.75195 -15.68481,3.21555 -1.44762,0.293 -2.76342,0.60305 -2.924,0.68899 -0.16059,0.0859 -0.722424,0.20967 -1.248534,0.27495 -0.52611,0.0653 -1.63124,0.27283 -2.45586,0.46122 -0.82462,0.18839 -2.65024,0.56955 -4.05694,0.84703 -2.12228,0.41863 -5.70916,1.1437 -11.37709,2.29982 -1.92753,0.39317 -3.74179,0.75961 -8.67581,1.75233 -5.10047,1.02621 -5.15937,1.04311 -6.37562,1.8299 -1.11259,0.71973 -1.26471,0.89059 -1.62383,1.82387 -0.56447,1.46691 -0.49608,3.06992 0.36375,8.52627 0.0994,0.63059 0.372,2.49591 0.60585,4.14514 0.41077,2.89711 1.65114,11.040962 2.12236,13.934732 0.12638,0.77611 0.48333,3.07798 0.79321,5.11527 0.30989,2.0373 0.9587,6.28386 1.4418,9.43681 0.48311,3.152949 1.06485,7.002639 1.29276,8.554859 0.22791,1.55222 0.54254,3.65566 0.69918,4.67431 0.15663,1.01864 0.39916,2.64583 0.53895,3.61597 0.1398,0.97014 0.45204,3.07357 0.69388,4.6743 0.24183,1.60073 0.5636,3.74386 0.71503,4.7625 0.15144,1.01865 0.42693,2.80459 0.6122,3.96875 0.18527,1.16417 0.37682,2.39448 0.42566,2.73403 0.0488,0.33955 0.29406,2.04611 0.54493,3.79236 0.56756,3.95065 0.6633,4.43056 1.04256,5.22616 0.6368,1.3359 1.52745,1.73159 4.69495,2.08588 3.56908,0.3992 11.46921,1.5778 18.25625,2.72361 0.873134,0.1474 2.420944,0.38925 3.439594,0.53744 1.01864,0.14818 2.48708,0.38985 3.26319,0.53704 0.77611,0.14719 2.04611,0.35131 2.82222,0.4536 0.77611,0.1023 2.28424,0.33263 3.35139,0.51184 1.28102,0.21514 2.69671,0.31631 4.16652,0.29776 l 2.22624,-0.0281 z M 84.496336,131.7697 c -0.88471,-0.10388 -1.74864,-0.57304 -1.74864,-0.94959 0,-0.68022 1.66963,-1.1738 3.62995,-1.07309 2.15543,0.11073 3.99457,-0.28104 6.6006,-1.40606 2.18265,-0.94223 4.09401,-2.01975 7.02149,-3.95832 1.425444,-0.94392 3.097804,-2.01223 3.716364,-2.37403 1.80147,-1.05368 6.30321,-2.22992 8.53542,-2.23019 1.46438,-1.8e-4 2.59896,0.32133 2.59896,0.73647 0,0.3222 -0.58723,0.59205 -0.88624,0.40726 -0.19113,-0.11813 -3.43836,0.33207 -4.67001,0.64745 -1.39142,0.3563 -3.87057,1.52044 -4.36512,2.04974 -0.21856,0.23392 -0.93316,0.73887 -1.58801,1.12212 -0.65484,0.38325 -1.19062,0.77269 -1.19062,0.86543 0,0.0927 -0.0992,0.17159 -0.22049,0.17523 -0.31085,0.009 -1.6479,1.18239 -1.5076,1.32269 0.0636,0.0636 0.67277,-0.011 1.3536,-0.16582 0.68083,-0.15485 1.46034,-0.28159 1.73223,-0.28164 0.27189,-5e-5 0.89122,-0.14657 1.37629,-0.32559 0.57001,-0.21038 1.03791,-0.27895 1.32291,-0.19389 0.75718,0.22601 1.75924,0.17826 2.3175,-0.11043 0.44396,-0.22958 0.90474,-0.25622 2.68155,-0.15499 1.68703,0.0961 2.37676,0.063 3.22789,-0.15507 1.75017,-0.44838 2.82058,-0.54077 3.41455,-0.29474 0.5285,0.21891 0.85236,0.85485 0.62374,1.22477 -0.14783,0.23919 -1.07402,0.24095 -1.51884,0.003 -0.29166,-0.1561 -0.39647,-0.0928 -0.70117,0.42366 -0.38926,0.65975 -0.61106,0.75148 -2.19969,0.90972 -0.58001,0.0578 -1.19315,0.14544 -1.36254,0.19482 -0.1694,0.0494 -0.57106,-0.005 -0.89259,-0.12162 -0.52307,-0.18915 -0.65821,-0.16492 -1.28418,0.23024 -0.38478,0.2429 -0.9753,0.50086 -1.31228,0.57324 -0.33698,0.0724 -0.68466,0.17434 -0.77263,0.22656 -0.088,0.0522 -0.52453,0.12329 -0.97014,0.15793 -0.44561,0.0346 -0.96894,0.13777 -1.16297,0.22918 -1.27229,0.59939 -1.61134,0.66277 -2.59339,0.48477 -0.94041,-0.17046 -1.07571,-0.14473 -2.81324,0.53492 -3.258064,1.27442 -3.453144,1.29538 -12.585044,1.35228 -1.64924,0.0103 -3.36266,-0.0241 -3.80761,-0.0763 z m -4.86674,-5.75817 c -0.54124,-0.1139 -0.79732,-0.48596 -0.73111,-1.06224 0.0526,-0.45785 0.14235,-0.51154 1.20337,-0.71993 0.63059,-0.12385 1.58309,-0.31403 2.11667,-0.42262 1.13902,-0.23181 1.87933,-0.67256 3.77948,-2.2502 1.29182,-1.07256 7.30776,-6.6853 9.36869,-8.74078 2.00617,-2.00087 4.940104,-3.84006 9.253224,-5.80055 1.77791,-0.80813 4.31911,-1.29013 4.90213,-0.9298 0.26044,0.16096 0.28446,0.81647 0.0299,0.81647 -0.10078,0 -0.79531,0.26757 -1.5434,0.5946 -0.7481,0.32703 -2.00082,0.87056 -2.78383,1.20785 -1.31048,0.5645 -2.20421,1.09932 -5.631904,3.37022 -2.75446,1.82487 -4.8258,3.59191 -5.72222,4.88158 -0.41075,0.59095 -1.61937,2.05673 -2.74445,3.3284 -0.70996,0.80246 -3.84932,3.1887 -4.20366,3.19521 -0.0807,10e-4 -0.60116,0.26905 -1.15661,0.59459 -0.55544,0.32554 -1.44193,0.73291 -1.96995,0.90528 -0.52804,0.17237 -1.06073,0.39319 -1.18377,0.49072 -0.37027,0.29349 -2.40514,0.66273 -2.98258,0.5412 z m 14.40969,-6.63013 c 0.004,-0.36237 0.19882,-0.58679 2.62671,-3.03272 1.32397,-1.33381 2.69659,-2.54586 3.18281,-2.8105 0.841234,-0.45786 1.419724,-0.46692 1.419724,-0.0223 0,0.61072 -3.664444,4.7284 -5.007604,5.62697 -0.74828,0.5006 -2.2268,0.65932 -2.22164,0.2385 z m 30.024374,-2.64584 c -0.0982,-0.12126 -0.58816,-0.9165 -1.0887,-1.76719 -0.61629,-1.0474 -1.1299,-1.69217 -1.59099,-1.99731 -0.7042,-0.46601 -0.77734,-0.62078 -0.99054,-2.09585 -0.13702,-0.94802 -0.28894,-1.13172 -2.11894,-2.56222 -2.23424,-1.74648 -2.78776,-2.49513 -3.14972,-4.26008 -0.0648,-0.31604 -0.35144,-0.61748 -0.88381,-0.92947 -0.43334,-0.25395 -0.8505,-0.56767 -0.92703,-0.69714 -0.0765,-0.12948 -0.30044,-0.31991 -0.49758,-0.42319 -0.43423,-0.22748 -1.14087,-1.58634 -1.14087,-2.19388 0,-0.24168 -0.0871,-0.6894 -0.19365,-0.99492 -0.15531,-0.44553 -0.29186,-0.55548 -0.68987,-0.55548 -0.33882,0 -0.64278,-0.17416 -0.9582,-0.54903 -0.40121,-0.4768 -0.45714,-0.69142 -0.42524,-1.63159 0.0249,-0.73215 -0.0591,-1.265309 -0.25926,-1.647079 -0.73444,-1.40065 -0.0499,-2.92916 2.22649,-4.97137 1.22902,-1.1026 1.35807,-1.29429 1.36227,-2.02341 0.005,-0.88728 0.25637,-2.03227 0.49928,-2.27518 0.2347,-0.2347 1.78861,-0.19321 2.42994,0.0649 0.27839,0.11203 1.02209,0.25258 1.65268,0.31233 1.09243,0.10351 1.14919,0.13182 1.20294,0.59992 0.031,0.2702 -0.11598,1.00932 -0.32668,1.64248 -0.33766,1.01467 -0.48032,1.21227 -1.20294,1.66613 -0.45091,0.28322 -0.97859,0.51789 -1.17262,0.5215 -0.19403,0.004 -0.7056,0.24561 -1.13682,0.53779 -0.43123,0.29217 -0.98685,0.57403 -1.23473,0.62636 -1.07071,0.22601 -2.52743,1.1354 -2.67719,1.67131 -0.22784,0.81532 -0.15623,2.01165 0.15422,2.576409 0.53141,0.96669 1.4853,2.22296 2.48003,3.26619 1.07878,1.13138 1.79713,2.12223 1.79713,2.47888 0,0.38868 0.9559,1.75327 1.76059,2.51334 0.41084,0.38805 0.90145,1.05949 1.09024,1.49209 0.18879,0.43259 0.55938,0.98822 0.82354,1.23472 0.26416,0.2465 0.71377,0.76569 0.99914,1.15374 0.28536,0.38806 0.70554,0.904 0.93373,1.14653 0.22818,0.24254 0.65037,0.87754 0.93818,1.41111 0.56034,1.03879 1.04046,1.7387 1.98353,2.89154 1.13796,1.39108 1.60073,2.77316 1.24176,3.70862 -0.12791,0.33333 -0.65997,0.36753 -0.91031,0.0585 z m -8.8875,-28.279239 c 0.30594,-0.15262 0.55587,-0.3709 0.55539,-0.48506 -0.001,-0.34183 -0.80843,-1.24342 -1.00449,-1.12225 -0.22162,0.13697 -0.42418,1.27876 -0.28924,1.6304 0.11918,0.31058 0.0662,0.31224 0.73834,-0.0231 z M 73.751856,113.26339 c 0,-0.1877 0.57547,-0.92999 1.27882,-1.64953 0.70335,-0.71954 2.03288,-2.16652 2.95452,-3.21551 0.92163,-1.049 1.82114,-2.0595 1.99891,-2.24557 0.17778,-0.18608 0.75519,-0.98661 1.28315,-1.77898 1.21358,-1.82136 1.29208,-1.9148 1.54031,-1.83338 0.6945,0.22778 0.10598,1.54647 -2.06457,4.62605 -0.54703,0.77611 -1.20598,1.72861 -1.46436,2.11666 -0.75443,1.13311 -2.7065,3.00926 -3.84071,3.69133 -1.18625,0.71337 -1.68607,0.79902 -1.68607,0.28893 z m 7.12346,-1.5001 c -0.13709,-0.35723 0.079,-0.66725 0.99043,-1.42128 3.28412,-2.71681 3.63023,-3.03663 7.98176,-7.37537 2.01313,-2.00722 3.75188,-3.64948 3.86391,-3.64948 0.11202,0 0.44929,-0.18128 0.74949,-0.40285 0.3002,-0.22156 0.78394,-0.50912 1.07498,-0.63901 0.68734,-0.30676 5.066814,-1.85599 6.879174,-2.43349 0.77611,-0.24731 2.14666,-0.762079 3.04567,-1.143929 1.63082,-0.6927 2.09219,-0.73555 2.50923,-0.23305 0.67469,0.812959 -0.90082,1.752059 -5.73129,3.416219 -3.192514,1.09986 -3.812734,1.33809 -4.975124,1.91103 -0.69902,0.34454 -1.40586,0.77551 -1.57074,0.95771 -0.16488,0.18219 -0.39437,0.33126 -0.50998,0.33126 -0.1156,0 -0.48287,0.25797 -0.81616,0.57326 -0.33329,0.3153 -1.15906,1.08123 -1.83505,1.70207 -0.67598,0.62085 -1.94344,1.81459 -2.81656,2.65277 -0.87313,0.83817 -1.75362,1.6399 -1.95665,1.78161 -0.73871,0.51559 -2.12428,1.69377 -3.26524,2.77648 -0.65067,0.61746 -1.43136,1.18344 -1.76391,1.27882 -0.87625,0.25131 -1.74055,0.21272 -1.85394,-0.0828 z m 5.12435,-7.87817 c -0.0685,-0.11077 0.49107,-0.78566 1.2992,-1.5671 1.45303,-1.40505 2.03125,-2.31172 2.58868,-4.05919 0.17021,-0.53358 0.5466,-1.3471 0.83642,-1.80782 0.69838,-1.11019 1.57911,-1.492809 4.37095,-1.898899 1.21267,-0.17639 2.80017,-0.41209 3.52778,-0.52378 4.009214,-0.61542 3.880564,-0.60594 3.880564,-0.28595 0,0.15571 -0.10778,0.28311 -0.23951,0.28311 -0.22218,0 -2.449764,1.096509 -2.847304,1.401569 -0.2055,0.15769 -1.83497,0.46882 -3.35139,0.63991 -0.58209,0.0657 -1.18926,0.18736 -1.34928,0.2704 -0.16002,0.0831 -0.62899,0.64857 -1.04216,1.25671 -1.16127,1.7093 -3.05029,4.19252 -3.18928,4.19252 -0.0687,0 -0.50801,0.29366 -0.97626,0.65257 -0.46824,0.35891 -1.39536,0.87485 -2.06026,1.14653 -1.39763,0.57108 -1.29355,0.54956 -1.44815,0.29942 z m -11.3372,-0.31318 c -0.12975,-0.0822 -0.20913,-0.33812 -0.17639,-0.56861 0.0439,-0.30875 0.57468,-0.76782 2.01652,-1.74394 5.1525,-3.48821 7.56194,-5.46925 10.91161,-8.971519 0.77183,-0.80699 1.70678,-1.62206 2.07768,-1.81128 0.60701,-0.30968 0.67017,-0.40616 0.63246,-0.96615 -0.0572,-0.8492 0.38481,-1.16139 1.00364,-0.7089 0.6757,0.49408 0.18112,2.40173 -0.62267,2.40173 -0.21696,0 -1.29538,0.97838 -2.86225,2.59673 -5.26973,5.442869 -6.33228,6.412869 -8.88865,8.114479 -2.34842,1.5632 -3.50291,2.03083 -4.09195,1.65746 z m 10.49587,-4.01959 c -0.29637,-0.29638 -0.0294,-0.74887 0.97143,-1.6463 0.59504,-0.53358 1.65275,-1.68451 2.35047,-2.55764 0.69772,-0.873119 1.40659,-1.701999 1.57527,-1.841939 0.16867,-0.13994 0.55418,-0.61619 0.85667,-1.05833 0.96654,-1.41274 1.45193,-1.72573 2.0388,-1.31467 0.51006,0.35726 0.47857,0.6713 -0.10502,1.04735 -0.51322,0.3307 -0.97839,0.8031 -1.98437,2.01517 -0.33955,0.40911 -0.74045,0.87545 -0.89088,1.036319 -0.15043,0.16087 -0.39764,0.49093 -0.54935,0.73346 -0.46635,0.74553 -1.24067,1.57152 -2.49447,2.66093 -1.14765,0.99716 -1.50828,1.18591 -1.76855,0.92565 z m 7.39763,-9.502119 c -0.3547,-0.3547 -0.36388,-0.85354 -0.0209,-1.13815 0.39866,-0.33086 0.79599,-0.0812 0.79599,0.50017 0,0.69384 -0.39448,1.01856 -0.77506,0.63798 z m 8.237684,0.0467 c -0.3812,-0.17077 -0.936234,-1.26415 -0.936234,-1.84433 0,-0.16372 -0.28057,-0.58501 -0.62348,-0.93619 -0.9669,-0.99019 -0.60995,-1.39441 1.240844,-1.40513 1.03131,-0.006 1.18112,-0.0835 1.54866,-0.80128 0.54162,-1.05773 0.851,-2.71444 0.80945,-4.33451 -0.0493,-1.92329 0.12138,-2.18416 1.38512,-2.11676 0.28422,0.0152 0.43159,0.17435 0.53661,0.57964 0.21221,0.81895 0.55821,0.96751 1.61969,0.69546 1.50311,-0.38523 3.3328,-0.33775 4.15464,0.10781 1.26841,0.68768 1.6898,1.13868 1.79471,1.92084 0.1494,1.11386 -0.13524,1.47965 -1.15139,1.47965 -0.77566,0 -0.92244,-0.0745 -1.82316,-0.92604 -0.53878,-0.50932 -1.11801,-1.14432 -1.28718,-1.41111 -0.55043,-0.86807 -0.79617,-0.62736 -0.79617,0.77986 0,0.94462 -0.0762,1.34911 -0.30085,1.59737 -0.25052,0.27681 -0.26387,0.39165 -0.0798,0.68638 0.27949,0.44754 0.12034,0.97211 -0.33074,1.09007 -0.21944,0.0574 -0.34782,0.24264 -0.34934,0.50411 -0.005,0.93918 -0.19,1.20553 -0.91556,1.32155 -0.7961,0.1273 -0.98247,0.41574 -0.68727,1.06363 0.39238,0.86119 0.092,1.1515 -1.65796,1.6021 -0.38806,0.0999 -0.94368,0.25782 -1.23472,0.35089 -0.3412,0.1091 -0.66653,0.10768 -0.91586,-0.004 z m -13.627764,-1.96818 c -0.2957,-0.42979 -0.53764,-0.86439 -0.53764,-0.96579 0,-0.1014 -0.40147,-0.93574 -0.89216,-1.8541 -0.76438,-1.43059 -0.97862,-1.69826 -1.49588,-1.86897 -0.50512,-0.16671 -0.63384,-0.31964 -0.78808,-0.93635 -0.38846,-1.55327 -1.29673,-2.97033 -2.13265,-3.32732 -0.8784,-0.37512 -1.30266,-1.10566 -1.54872,-2.66671 -0.25587,-1.62332 -0.0178,-4.429782 0.48991,-5.775992 0.59394,-1.57474 1.34427,-2.63722 1.86242,-2.63722 0.72342,0 0.72894,0.6255 0.0252,2.85316 -0.85542,2.707722 -0.9733,4.136622 -0.45582,5.525312 0.21691,0.58208 0.43341,1.33614 0.48113,1.67569 0.12173,0.86631 0.33471,1.05834 1.17382,1.05834 0.99114,0 1.38808,0.32481 2.00316,1.63921 0.55569,1.1875 1.54224,2.6959 2.33113,3.56426 0.81293,0.89481 1.05999,1.36259 0.95036,1.79938 -0.0772,0.30767 0.0131,0.50316 0.35755,0.77413 0.56175,0.44186 0.58516,0.89683 0.0763,1.48209 -0.61698,0.7096 -1.25706,0.59536 -1.89999,-0.33912 z m 37.474174,0.66369 c -0.75348,-0.16409 -1.12516,-0.48206 -1.38213,-1.18242 -0.66932,-1.82412 -0.52294,-3.096 0.43809,-3.80652 0.46406,-0.34309 0.68539,-0.38891 1.44425,-0.29904 1.25918,0.14913 1.92498,0.82934 2.05238,2.09677 0.0513,0.51024 0.17262,0.91369 0.26964,0.89657 0.097,-0.0171 0.28784,-0.41401 0.42405,-0.88195 0.3226,-1.10819 0.49365,-8.42641 0.20509,-8.77411 -0.10705,-0.12898 -0.5815,-0.27169 -1.05434,-0.31712 -1.51556,-0.14563 -2.89096,-1.06771 -4.1627,-2.79071 -1.13305,-1.535092 -1.70014,-5.271282 -1.15019,-7.577892 0.12722,-0.53358 0.58079,-1.77213 1.00794,-2.75234 0.82921,-1.90287 1.87062,-3.18628 3.63493,-4.47961 1.82945,-1.34108 1.6318,-0.74714 1.56781,-4.71139 -0.0442,-2.73746 0.005,-3.76931 0.22396,-4.71417 0.33486,-1.44385 1.09287,-2.92166 2.00045,-3.9 0.92778,-1.00011 2.47898,-2.19666 2.84775,-2.19666 1.15078,0 2.33334,3.98188 2.05905,6.93318 -0.12858,1.38346 -0.43202,2.77284 -0.66042,3.02397 -0.0838,0.0922 -0.15241,0.29263 -0.15241,0.44547 0,0.15284 -0.21828,0.71805 -0.48507,1.25602 -0.35661,0.71909 -0.94635,1.39523 -2.22688,2.55315 l -1.7418,1.57502 0.10937,1.69358 c 0.0602,0.93147 0.15936,1.9435 0.22046,2.24896 0.10286,0.51433 0.16484,0.55566 0.83867,0.55925 0.40019,0.002 1.04547,0.14827 1.43396,0.32477 0.96041,0.43631 2.39699,2.05101 2.7782,3.12267 0.81441,2.28945 -0.1193,6.398152 -1.82076,8.012072 -0.88323,0.83779 -1.98906,1.413 -2.71646,1.413 -0.24565,0 -0.45577,0.0992 -0.46692,0.22049 -0.0112,0.12127 -0.031,2.04611 -0.0441,4.27743 -0.0226,3.85879 -0.0442,4.10192 -0.44012,4.97766 -0.84637,1.87187 -3.20294,3.15652 -5.05175,2.7539 z m 3.57531,-18.571862 c 0.0346,-2.86525 -0.01,-4.00131 -0.16466,-4.18762 -0.18028,-0.21723 -0.24642,-0.19034 -0.43983,0.17879 -0.1252,0.23896 -0.32717,0.95917 -0.44883,1.60048 -0.1723,0.9083 -0.28937,1.16601 -0.52967,1.16601 -0.40996,0 -0.85662,-0.71047 -0.96608,-1.53668 -0.12334,-0.93098 0.84292,-2.79456 1.7565,-3.38766 l 0.65685,-0.42643 v -1.29336 c 0,-0.71135 -0.0727,-1.29337 -0.16159,-1.29337 -0.31171,0 -2.09515,2.14099 -2.61393,3.13796 -0.63275,1.21602 -0.98268,3.09609 -0.97758,5.25224 0.005,2.01071 0.39529,3.02029 1.41811,3.66597 1.15649,0.730062 2.0573,1.177362 2.24518,1.114852 0.11072,-0.0368 0.19597,-1.545532 0.22553,-3.991182 z m 3.42052,3.123292 c 0.9686,-0.891472 1.20388,-1.584962 1.20527,-3.552562 7.1e-4,-1.07791 -0.0856,-1.56521 -0.38306,-2.16076 -0.21122,-0.42294 -0.48509,-0.76898 -0.60859,-0.76898 -0.12351,0 -0.28803,-0.10747 -0.36561,-0.23883 -0.15554,-0.26336 -0.80485,-0.64311 -1.0996,-0.64311 -0.12761,0 -0.18799,1.30307 -0.18799,4.05694 0,4.658792 -0.008,4.639822 1.43958,3.307302 z m -0.6446,-18.225522 c 0.30091,-0.39452 0.74123,-1.30697 0.9785,-2.02767 0.37263,-1.13187 0.43138,-1.63871 0.43138,-3.721 0,-1.32586 -0.0482,-2.45882 -0.10704,-2.5177 -0.19371,-0.19371 -0.67104,0.10293 -0.78977,0.49082 -0.0641,0.20932 -0.20353,0.48902 -0.3099,0.62156 -0.67174,0.83696 -1.34151,3.90355 -1.34673,6.16605 -0.004,1.62124 0.0287,1.81458 0.29613,1.76308 0.16517,-0.0318 0.54652,-0.38062 0.84743,-0.77514 z m -11.13805,28.941372 c -0.075,-0.19537 0.0741,-0.46261 0.44896,-0.80502 0.96391,-0.88039 1.36036,-2.4032 0.85158,-3.27103 -0.49893,-0.85104 -1.25389,-1.93017 -1.43488,-2.05099 -0.10676,-0.0713 -0.35683,-0.13081 -0.5557,-0.13229 -0.19887,-0.001 -0.86448,-0.36864 -1.47914,-0.81589 -0.97493,-0.70941 -1.31726,-0.84859 -2.68226,-1.09054 -1.16173,-0.20591 -1.70088,-0.39397 -2.09348,-0.73021 l -0.52877,-0.45287 0.38325,-0.59285 c 0.3523,-0.545 0.44136,-0.58622 1.10317,-0.51064 0.39596,0.0452 1.1125,0.33185 1.59231,0.63695 0.47981,0.30511 0.99574,0.55483 1.14652,0.55495 0.15079,1.2e-4 0.506,0.19961 0.78938,0.44331 0.40325,0.3468 0.63664,0.42031 1.07398,0.33827 0.46886,-0.088 0.6414,-0.0164 1.07228,0.44483 0.28243,0.30231 0.89122,0.79369 1.35286,1.09197 0.52864,0.34157 0.88217,0.71471 0.95506,1.00804 0.0636,0.25615 0.38901,0.8626 0.72303,1.34767 0.56327,0.81799 0.59996,0.95336 0.50593,1.86667 -0.13447,1.30626 -0.1748,1.38156 -1.13682,2.12318 -0.99928,0.77034 -1.91962,1.03335 -2.08726,0.59649 z m -4.05851,-12.241642 c -0.92211,-0.85145 -1.05066,-1.42528 -0.66303,-2.95984 0.16737,-0.66259 0.27815,-1.63868 0.24663,-2.17305 -0.10971,-1.85991 -0.0539,-2.73937 0.22398,-3.52778 0.50054,-1.42027 1.02216,-4.0425 0.90376,-4.54323 -0.19678,-0.83221 -0.90809,-1.58516 -1.96303,-2.07794 -1.75562,-0.82009 -2.18562,-1.4691 -1.45645,-2.19828 0.50511,-0.50511 1.59102,-0.46633 2.46945,0.0882 0.38419,0.24253 0.76297,0.44097 0.84171,0.44097 0.37866,0 1.61465,1.55885 1.80339,2.27446 0.20997,0.79608 0.0382,2.43171 -0.36736,3.49846 -0.099,0.26043 -0.37421,1.20328 -0.61153,2.09522 -0.50227,1.88769 -0.55851,3.54542 -0.14727,4.34066 0.21176,0.40952 0.25324,0.77824 0.16271,1.44645 -0.0668,0.49326 -0.17488,1.50816 -0.24012,2.25533 -0.0652,0.74718 -0.19859,1.43834 -0.29633,1.53591 -0.11923,0.11902 -0.41757,-0.0441 -0.90651,-0.49554 z m -14.61439,-1.05352 c -0.46762,-0.0992 -0.53567,-0.19418 -0.58505,-0.81697 -0.0307,-0.38762 -0.12996,-0.78017 -0.22049,-0.87234 -0.0905,-0.0922 -0.1646,-0.3835 -0.1646,-0.64741 0,-0.46106 0.0455,-0.48473 1.16199,-0.60429 1.48041,-0.15854 3.54335,-0.0188 4.187,0.28367 0.65166,0.30621 1.07668,1.10561 0.83144,1.56383 -0.0991,0.18527 -0.43465,0.39272 -0.74555,0.46101 -0.47979,0.10538 -0.62186,0.0532 -0.93953,-0.34522 -0.43502,-0.54557 -0.85397,-0.47475 -1.20987,0.20452 -0.19109,0.3647 -1.34194,0.97716 -1.69798,0.90363 -0.0485,-0.01 -0.32632,-0.0687 -0.61736,-0.13043 z m -17.103784,-1.95614 c -0.17505,-0.19343 -0.26523,-0.4715 -0.20436,-0.63014 0.0599,-0.15616 0.0231,-0.44432 -0.0818,-0.64036 -0.10492,-0.19603 -0.1466,-0.53235 -0.0926,-0.74737 0.1493,-0.59488 1.43635,-1.53891 2.24617,-1.64753 l 0.70148,-0.0941 -0.0396,0.68584 c -0.0218,0.37721 0.0594,0.86975 0.18034,1.09454 0.25418,0.47242 0.0364,0.90962 -0.89785,1.80244 -0.63982,0.61145 -1.3552,0.6812 -1.81179,0.17667 z m 14.45794,-1.34155 c -1.68931,-0.33071 -2.02847,-0.50502 -2.02847,-1.04249 0,-0.41313 0.0596,-0.44468 0.83785,-0.44377 1.56114,0.002 2.965474,0.67991 2.832074,1.36746 -0.0744,0.38372 -0.230554,0.39501 -1.641454,0.1188 z m 13.846544,-0.34071 c -0.0922,-0.24254 -0.249,-0.44097 -0.34842,-0.44097 -0.26622,0 -0.21979,-1.15262 0.0748,-1.85775 0.43426,-1.03933 1.42574,-0.65286 1.21072,0.47193 -0.0486,0.25439 -0.002,0.5162 0.10459,0.5818 0.29605,0.18297 0.21886,0.84714 -0.14983,1.28908 -0.42917,0.51446 -0.68433,0.50185 -0.89189,-0.0441 z m -7.64558,-0.41077 c -0.22164,-0.2449 -0.29193,-0.67052 -0.29193,-1.76776 0,-1.22961 0.077,-1.60907 0.51599,-2.54375 0.61711,-1.31387 0.97734,-1.76266 1.71012,-2.13056 0.48146,-0.24172 1.30167,-1.51438 1.30167,-2.01971 0,-0.25693 0.9726,-0.87394 1.84388,-1.16975 0.76803,-0.26075 0.88595,-0.26199 1.26543,-0.0134 0.72109,0.47248 0.46093,1.48773 -0.56061,2.1877 -0.51693,0.3542 -0.64909,0.38087 -0.89134,0.17981 -0.41052,-0.3407 -0.77541,0.2224 -0.77541,1.19663 0,0.59211 -0.098,0.84637 -0.44098,1.14462 -0.24253,0.21088 -0.44218,0.5477 -0.44367,0.74849 -0.003,0.4396 -0.14751,0.65448 -0.61219,0.9119 -0.24572,0.13612 -0.43844,0.58226 -0.6455,1.49436 -0.23098,1.01746 -0.40419,1.38753 -0.79622,1.70125 -0.60722,0.48592 -0.80014,0.49903 -1.17924,0.0801 z m -11.845404,-0.0327 c -0.38806,-0.0771 -1.10243,-0.18685 -1.5875,-0.24381 -1.17804,-0.13835 -2.68381,-0.55406 -3.05266,-0.84277 -0.44571,-0.34887 -0.55763,-0.54522 -0.56061,-0.98348 -0.003,-0.37623 0.0655,-0.39688 1.30873,-0.39688 0.72129,0 1.50097,0.0721 1.73262,0.16014 0.23165,0.0881 1.00339,0.21349 1.71496,0.27872 1.47135,0.13486 2.04215,0.42657 2.17288,1.11045 0.19169,1.00276 -0.2147,1.21851 -1.72842,0.91763 z m -6.5357,-2.07276 c -0.41684,-0.2909 -0.96083,-1.44622 -0.96083,-2.04061 0,-0.8416 0.47415,-1.79965 1.01192,-2.04468 0.2666,-0.12147 0.39641,-0.29504 0.33682,-0.45035 -0.0533,-0.13898 -0.19371,-0.72104 -0.31194,-1.29346 -0.20113,-0.97378 -0.18939,-1.08214 0.18242,-1.68375 0.35948,-0.58165 0.37914,-0.72811 0.20605,-1.5352 -0.45993,-2.14456 0.49567,-4.04085 2.47802,-4.91742 1.01028,-0.44673 3.30393,-0.7812 4.25514,-0.62049 1.83176,0.30947 3.03994,1.35507 4.11819,3.56402 0.59972,1.22862 0.61968,1.33184 0.51156,2.64584 -0.0806,0.97945 -0.0391,1.60422 0.14613,2.20236 0.30529,0.98567 0.17111,1.80553 -0.52231,3.19151 -0.6543,1.30776 -1.08545,1.73867 -1.5115,1.51066 -0.24344,-0.13029 -0.41402,-0.12015 -0.60188,0.0358 -0.21045,0.17466 -0.31561,0.16413 -0.53315,-0.0534 -0.24372,-0.24373 -0.24006,-0.36642 0.0364,-1.21957 0.16906,-0.52172 0.37577,-1.10733 0.45936,-1.30136 0.20231,-0.46957 -0.092,-2.70552 -0.44634,-3.39068 -0.20602,-0.3984 -0.25555,-0.83765 -0.18741,-1.66221 0.12221,-1.479 -0.0857,-2.19845 -0.61308,-2.12198 -0.2165,0.0314 -0.60453,-0.0811 -0.86228,-0.24999 -0.25775,-0.16888 -0.98694,-0.3673 -1.62044,-0.44091 -0.63349,-0.0736 -1.36864,-0.18838 -1.63365,-0.25503 -0.41758,-0.10502 -0.50758,-0.0538 -0.67474,0.38384 -0.11067,0.28975 -0.14478,0.88094 -0.08,1.38696 0.21329,1.6668 0.14603,2.45089 -0.30423,3.54694 -0.43314,1.05435 -0.4365,1.09691 -0.15646,1.98201 0.15741,0.49749 0.37629,0.90559 0.48639,0.90688 0.33943,0.004 0.76994,0.83935 0.76994,1.49398 0,0.57633 -0.0357,0.61744 -0.48507,0.55903 -1.11179,-0.14453 -1.79454,-0.64644 -2.14957,-1.58024 -0.27847,-0.73244 -0.60917,-0.48312 -0.7613,0.57397 -0.1042,0.72404 -0.0696,1.03508 0.15819,1.42065 0.2779,0.47044 0.27323,0.51944 -0.0994,1.04278 -0.21506,0.30203 -0.40546,0.54792 -0.4231,0.54644 -0.0176,-10e-4 -0.11565,-0.061 -0.21779,-0.13229 z m 21.643424,-8.86195 c -0.78754,-0.57049 -0.8352,-0.7086 -0.53838,-1.56008 0.22719,-0.65172 0.54393,-0.69595 1.3714,-0.19148 0.63229,0.38548 1.08079,0.34821 1.08079,-0.0898 0,-0.14633 0.20169,-0.3982 0.4482,-0.55972 1.02518,-0.67173 1.82807,0.54851 1.19757,1.82007 -0.39459,0.79579 -0.71004,0.92296 -0.91994,0.37087 -0.29164,-0.76706 -1.60777,-0.42734 -1.60777,0.41499 0,0.44706 -0.18178,0.41097 -1.03187,-0.20483 z"
       style="fill:#000000;stroke-width:0.176389" />
  </g>
</svg>
